subject_07
version=1
nRows=281
nColumns=3
inDegrees=yes
endheader
time	r_shoulder_elev	r_elbow_flex
62.8500	17.928737	51.897454
62.8600	17.928737	52.839006
62.8700	17.928737	53.913889
62.8800	17.928737	55.006564
62.8900	17.928737	55.980545
62.9000	17.928737	56.743507
62.9100	17.928737	57.295787
62.9200	17.928737	57.737835
62.9300	17.928737	58.230704
62.9400	17.928737	58.925655
62.9500	17.928737	59.894138
62.9600	17.928737	61.090508
62.9700	17.928737	62.365974
62.9800	17.928737	63.529547
62.9900	17.928737	64.430330
63.0000	17.928737	65.025184
63.0100	17.928737	65.401423
63.0200	17.928737	65.743449
63.0300	17.928737	66.256679
63.0400	17.928737	67.080903
63.0500	17.928737	68.230099
63.0600	17.928737	69.584550
63.0700	17.928737	70.938748
63.0800	17.928737	72.084907
63.0900	17.928737	72.897051
63.1000	17.928737	73.380899
63.1100	17.928737	73.669677
63.1200	17.928737	73.968868
63.1300	17.928737	74.473796
63.1400	17.928737	75.294218
63.1500	17.928737	76.415738
63.1600	17.928737	77.711537
63.1700	17.928737	78.996867
63.1800	17.928737	80.102114
63.1900	17.928737	80.934539
63.2000	17.928737	81.505616
63.2100	17.928737	81.916500
63.2200	17.928737	82.311404
63.2300	17.928737	82.820260
63.2400	17.928737	83.513918
63.2500	17.928737	84.387378
63.2600	17.928737	85.373547
63.2700	17.928737	86.377665
63.2800	17.928737	87.315873
63.2900	17.928737	88.142403
63.3000	17.928737	88.857020
63.3100	17.928737	89.493767
63.3200	17.928737	90.099390
63.3300	17.928737	90.712365
63.3400	17.928737	91.350913
63.3500	17.928737	92.012785
63.3600	17.928737	92.683990
63.3700	17.928737	93.350355
63.3800	17.928737	94.005989
63.3900	17.928737	94.655390
63.4000	17.928737	95.309480
63.4100	17.928737	95.978457
63.4200	17.928737	96.665096
63.4300	17.928737	97.361245
63.4400	17.928737	98.048548
63.4500	17.928737	98.702917
63.4600	17.928737	99.301401
63.4700	17.928737	99.829749
63.4800	17.928737	100.288846
63.4900	17.928737	100.698031
63.5000	17.928737	101.093366
63.5100	17.928737	101.519729
63.5200	17.928737	102.017469
63.5300	17.928737	102.606963
63.5400	17.928737	103.276638
63.5500	17.928737	103.980472
63.5600	17.928737	104.648607
63.5700	17.928737	105.209828
63.5800	17.928737	105.618965
63.5900	17.928737	105.878461
63.6000	17.928737	106.043718
63.6100	17.928737	106.207183
63.6200	17.928737	106.464815
63.6300	17.928737	106.877051
63.6400	17.928737	107.440615
63.6500	17.928737	108.084808
63.6600	17.928737	108.696581
63.6700	17.928737	109.166246
63.6800	17.928737	109.435505
63.6900	17.928737	109.526561
63.7000	17.928737	109.537624
63.7100	17.928737	109.603938
63.7200	17.928737	109.839052
63.7300	17.928737	110.281244
63.7400	17.928737	110.869795
63.7500	17.928737	111.464292
63.7600	17.928737	111.901763
63.7700	17.928737	112.068956
63.7800	17.928737	111.958505
63.7900	17.928737	111.682604
63.8000	17.928737	111.434779
63.8100	17.928737	111.412685
63.8200	17.928737	111.732884
63.8300	17.928737	112.374034
63.8400	17.928737	113.174794
63.8500	17.928737	113.890646
63.8600	17.928737	114.288893
63.8700	17.928737	114.243931
63.8800	17.928737	113.793325
63.8900	17.928737	113.130192
63.9000	17.928737	112.533168
63.9100	17.928737	112.260888
63.9200	17.928737	112.452736
63.9300	17.928737	113.075325
63.9400	17.928737	113.935624
63.9500	17.928737	114.754792
63.9600	17.928737	115.272740
63.9700	17.928737	115.342154
63.9800	17.928737	114.976440
63.9900	17.928737	114.335772
64.0000	17.928737	113.660501
64.0100	17.928737	113.180949
64.0200	17.928737	113.039434
64.0300	17.928737	113.252218
64.0400	17.928737	113.720723
64.0500	17.928737	114.281142
64.0600	17.928737	114.768255
64.0700	17.928737	115.067513
64.0800	17.928737	115.138674
64.0900	17.928737	115.008683
64.1000	17.928737	114.745074
64.1100	17.928737	114.426314
64.1200	17.928737	114.121547
64.1300	17.928737	113.884144
64.1400	17.928737	113.754115
64.1500	17.928737	113.760210
64.1600	17.928737	113.915051
64.1700	17.928737	114.203861
64.1800	17.928737	114.574620
64.1900	17.928737	114.939936
64.2000	17.928737	115.196642
64.2100	17.928737	115.259794
64.2200	17.928737	115.098336
64.2300	17.928737	114.755593
64.2400	17.928737	114.342013
64.2500	17.928737	113.999029
64.2600	17.928737	113.846522
64.2700	17.928737	113.935401
64.2800	17.928737	114.226449
64.2900	17.928737	114.605923
64.3000	17.928737	114.932234
64.3100	17.928737	115.095041
64.3200	17.928737	115.059435
64.3300	17.928737	114.875559
64.3400	17.928737	114.649571
64.3500	17.928737	114.489692
64.3600	17.928737	114.453064
64.3700	17.928737	114.519111
64.3800	17.928737	114.602684
64.3900	17.928737	114.601080
64.4000	17.928737	114.452009
64.4100	17.928737	114.173251
64.4200	17.928737	113.862421
64.4300	17.928737	113.653999
64.4400	17.928737	113.651923
64.4500	17.928737	113.869482
64.4600	17.928737	114.207139
64.4700	17.928737	114.482877
64.4800	17.928737	114.505673
64.4900	17.928737	114.161527
64.5000	17.928737	113.473312
64.5100	17.928737	112.605001
64.5200	17.928737	111.804190
64.5300	17.928737	111.304193
64.5400	17.928737	111.226110
64.5500	17.928737	111.523137
64.5600	17.928737	111.992692
64.5700	17.928737	112.353379
64.5800	17.928737	112.355953
64.5900	17.928737	111.882382
64.6000	17.928737	110.991750
64.6100	17.928737	109.894111
64.6200	17.928737	108.863916
64.6300	17.928737	108.129890
64.6400	17.928737	107.787423
64.6500	17.928737	107.768805
64.6600	17.928737	107.881093
64.6700	17.928737	107.892424
64.6800	17.928737	107.627936
64.6900	17.928737	107.034429
64.7000	17.928737	106.188651
64.7100	17.928737	105.250072
64.7200	17.928737	104.383203
64.7300	17.928737	103.686194
64.7400	17.928737	103.157001
64.7500	17.928737	102.709085
64.7600	17.928737	102.224926
64.7700	17.928737	101.618752
64.7800	17.928737	100.877350
64.7900	17.928737	100.060240
64.8000	17.928737	99.261401
64.8100	17.928737	98.553794
64.8200	17.928737	97.946034
64.8300	17.928737	97.373947
64.8400	17.928737	96.731877
64.8500	17.928737	95.928334
64.8600	17.928737	94.937865
64.8700	17.928737	93.822094
64.8800	17.928737	92.707504
64.8900	17.928737	91.728584
64.9000	17.928737	90.962490
64.9100	17.928737	90.386749
64.9200	17.928737	89.881801
64.9300	17.928737	89.279766
64.9400	17.928737	88.438925
64.9500	17.928737	87.310504
64.9600	17.928737	85.966533
64.9700	17.928737	84.574318
64.9800	17.928737	83.326925
64.9900	17.928737	82.359295
65.0000	17.928737	81.686893
65.0100	17.928737	81.194680
65.0200	17.928737	80.682507
65.0300	17.928737	79.948363
65.0400	17.928737	78.874139
65.0500	17.928737	77.477163
65.0600	17.928737	75.905297
65.0700	17.928737	74.377468
65.0800	17.928737	73.094699
65.0900	17.928737	72.158875
65.1000	17.928737	71.532752
65.1100	17.928737	71.056887
65.1200	17.928737	70.515221
65.1300	17.928737	69.721285
65.1400	17.928737	68.589607
65.1500	17.928737	67.164395
65.1600	17.928737	65.596280
65.1700	17.928737	64.079286
65.1800	17.928737	62.775390
65.1900	17.928737	61.757040
65.2000	17.928737	60.988509
65.2100	17.928737	60.349789
65.2200	17.928737	59.689581
65.2300	17.928737	58.883866
65.2400	17.928737	57.876966
65.2500	17.928737	56.691648
65.2600	17.928737	55.408747
65.2700	17.928737	54.128682
65.2800	17.928737	52.932520
65.2900	17.928737	51.857622
65.3000	17.928737	50.894530
65.3100	17.928737	50.002077
65.3200	17.928737	49.130922
65.3300	17.928737	48.244229
65.3400	17.928737	47.327757
65.3500	17.928737	46.387754
65.3600	17.928737	45.440593
65.3700	17.928737	44.500789
65.3800	17.928737	43.573246
65.3900	17.928737	42.652399
65.4000	17.928737	41.727255
65.4100	17.928737	40.788998
65.4200	17.928737	39.837375
65.4300	17.928737	38.883362
65.4400	17.928737	37.947414
65.4500	17.928737	37.054141
65.4600	17.928737	36.224999
65.4700	17.928737	35.470841
65.4800	17.928737	34.786174
65.4900	17.928737	34.147091
65.5000	17.928737	33.514554
65.5100	17.928737	32.843766
65.5200	17.928737	32.098310
65.5300	17.928737	31.265187
65.5400	17.928737	30.364953
65.5500	17.928737	29.451283
65.5600	17.928737	28.597276
65.5700	17.928737	27.870995
65.5800	17.928737	27.308312
65.5900	17.928737	26.894136
65.6000	17.928737	26.561695
65.6100	17.928737	26.213223
65.6200	17.928737	25.756344
65.6300	17.928737	25.142544
65.6400	17.928737	24.391184
65.6500	17.928737	23.586829
